<?xml version="1.0" encoding="iso-8859-1"?>
<!-- Generator: Adobe Illustrator 19.0.0, SVG Export Plug-In . SVG Version: 6.00 Build 0)  -->
<svg version="1.1" id="Layer_1" xmlns="http://www.w3.org/2000/svg" xmlns:xlink="http://www.w3.org/1999/xlink" x="0px" y="0px"
	 viewBox="0 0 511.999 511.999" style="enable-background:new 0 0 511.999 511.999;" xml:space="preserve">
<g>
	<g>
		<g>
			<path d="M511.856,449.751l-12.127-63.556v-69.211c0-1.869-0.028-3.73-0.07-5.576l-0.035-1.392
				c-0.052-1.85-0.117-3.697-0.211-5.536l-0.011-0.197c-0.092-1.782-0.207-3.561-0.338-5.335l-0.104-1.367
				c-0.143-1.811-0.299-3.62-0.486-5.476l-0.042-0.373c-0.173-1.684-0.367-3.359-0.577-5.057l-0.174-1.378
				c-0.23-1.769-0.473-3.532-0.743-5.308l-0.099-0.618c-0.246-1.582-0.509-3.159-0.783-4.723l-0.258-1.457
				c-0.312-1.718-0.636-3.431-0.979-5.115l-0.181-0.856c-0.308-1.485-0.631-2.963-0.964-4.427c-0.113-0.505-0.228-1.011-0.342-1.499
				c-0.389-1.663-0.791-3.323-1.213-4.97l-0.276-1.048c-0.36-1.375-0.731-2.747-1.112-4.109l-0.444-1.575
				c-0.46-1.597-0.93-3.191-1.416-4.757c-0.081-0.266-0.166-0.53-0.251-0.795l-0.146-0.455c-0.402-1.276-0.815-2.549-1.27-3.91
				c-0.172-0.514-0.341-1.025-0.514-1.527c-0.526-1.54-1.063-3.073-1.617-4.589c-0.116-0.321-0.237-0.639-0.355-0.958l-0.17-0.453
				c-0.435-1.174-0.88-2.345-1.333-3.509c-0.221-0.568-0.442-1.137-0.668-1.707c-0.585-1.47-1.181-2.935-1.798-4.402l-0.664-1.546
				c-0.461-1.072-0.928-2.142-1.407-3.217l-0.111-0.247c-0.227-0.509-0.454-1.015-0.684-1.523c-0.639-1.403-1.291-2.799-1.96-4.199
				l-0.824-1.688c-0.483-0.986-0.97-1.968-1.462-2.937l-0.16-0.318c-0.256-0.508-0.513-1.015-0.766-1.504
				c-0.691-1.34-1.393-2.674-2.116-4.012c-0.254-0.471-0.513-0.937-0.771-1.406l-0.21-0.38c-0.496-0.897-0.996-1.793-1.506-2.693
				l-0.228-0.403c-0.279-0.491-0.558-0.982-0.866-1.514l-0.127-0.225c-0.046-0.079-0.102-0.168-0.158-0.258
				c-6.811-11.69-14.656-22.895-23.318-33.3l-0.428-0.504c-1.242-1.486-2.501-2.953-3.783-4.414l-0.789-0.891
				c-1.185-1.334-2.382-2.659-3.595-3.967l-0.869-0.932c-1.243-1.329-2.501-2.643-3.774-3.943
				c-3.129-3.196-8.256-3.251-11.454-0.121c-3.197,3.129-3.251,8.257-0.121,11.454c1.189,1.214,2.363,2.44,3.536,3.693l0.801,0.86
				c1.133,1.222,2.253,2.459,3.348,3.693l0.75,0.846c1.193,1.36,2.368,2.731,3.513,4.097l0.413,0.487
				c8.133,9.771,15.494,20.291,21.877,31.269c0.037,0.065,0.08,0.135,0.125,0.207l0.073,0.13c0.255,0.438,0.505,0.881,0.756,1.323
				l0.232,0.409c0.476,0.839,0.946,1.683,1.41,2.523l0.212,0.383c0.239,0.43,0.476,0.862,0.703,1.282
				c0.666,1.234,1.323,2.48,1.974,3.744c0.234,0.453,0.464,0.909,0.695,1.366l0.167,0.333c0.461,0.909,0.915,1.822,1.361,2.736
				l0.773,1.583c0.62,1.296,1.229,2.599,1.824,3.908c0.213,0.468,0.423,0.936,0.632,1.407l0.108,0.241
				c0.445,1.001,0.885,2.002,1.315,3.007l0.625,1.455c0.572,1.362,1.129,2.731,1.675,4.101c0.208,0.526,0.415,1.055,0.619,1.584
				c0.423,1.088,0.838,2.179,1.247,3.282l0.489,1.311c0.517,1.42,1.017,2.845,1.51,4.29c0.16,0.469,0.316,0.937,0.508,1.51
				c0.393,1.181,0.78,2.367,1.151,3.549l0.368,1.159c0.459,1.482,0.9,2.972,1.326,4.452l0.414,1.47
				c0.357,1.279,0.705,2.56,1.035,3.82l0.262,0.997c0.394,1.537,0.769,3.083,1.135,4.65c0.107,0.455,0.21,0.91,0.315,1.378
				c0.312,1.373,0.613,2.751,0.9,4.132l0.167,0.791c0.325,1.59,0.627,3.188,0.918,4.785l0.241,1.355
				c0.257,1.468,0.503,2.942,0.731,4.414l0.095,0.594c0.249,1.641,0.476,3.29,0.691,4.929l0.165,1.315
				c0.194,1.561,0.376,3.125,0.539,4.723l0.041,0.369c0.17,1.685,0.316,3.377,0.45,5.073l0.097,1.282
				c0.12,1.654,0.23,3.314,0.314,4.955c0.001,0.024,0.006,0.109,0.01,0.162c0,0.018,0.001,0.036,0.002,0.054
				c0.087,1.713,0.149,3.435,0.197,5.162l0.032,1.296c0.04,1.735,0.067,3.473,0.067,5.218v45.986
				c-0.132-0.087-0.274-0.173-0.407-0.26c-0.49-0.323-0.994-0.643-1.505-0.962c-0.284-0.177-0.566-0.354-0.856-0.53
				c-0.553-0.335-1.123-0.667-1.7-0.999c-0.271-0.156-0.537-0.312-0.813-0.467c-0.649-0.364-1.319-0.725-1.997-1.083
				c-0.225-0.119-0.443-0.24-0.672-0.359c-0.836-0.435-1.697-0.866-2.576-1.294c-0.084-0.041-0.164-0.083-0.248-0.124
				c-2.005-0.971-4.122-1.923-6.35-2.86c-0.003-0.001-0.008-0.003-0.011-0.004c-1.082-0.455-2.193-0.904-3.327-1.35
				c-0.177-0.07-0.362-0.138-0.541-0.208c-0.968-0.377-1.95-0.752-2.957-1.122c-0.261-0.096-0.53-0.192-0.794-0.288
				c-0.943-0.343-1.898-0.685-2.875-1.023c-0.303-0.106-0.613-0.21-0.92-0.314c-0.962-0.328-1.936-0.654-2.929-0.978
				c-0.322-0.105-0.646-0.208-0.97-0.313c-1.007-0.323-2.029-0.644-3.067-0.962c-0.322-0.098-0.644-0.198-0.968-0.295
				c-1.076-0.325-2.169-0.647-3.277-0.968c-0.299-0.086-0.597-0.174-0.899-0.259c-1.189-0.339-2.401-0.675-3.626-1.009
				c-0.229-0.063-0.454-0.125-0.685-0.187c-1.391-0.375-2.806-0.745-4.243-1.112c-0.073-0.018-0.145-0.038-0.218-0.056
				c-2.559-0.651-5.2-1.289-7.907-1.917v-24.681c0-64.558-17.368-125.357-48.904-171.197
				c-10.728-15.594-22.675-28.838-35.535-39.585c1.197,0.487,2.4,0.967,3.579,1.471c0.033,0.015,0.098,0.043,0.132,0.057
				l0.175,0.076c1.756,0.755,3.53,1.544,5.258,2.337l0.961,0.45c1.548,0.719,3.085,1.456,4.593,2.197l1.103,0.55
				c1.514,0.755,3.018,1.529,4.513,2.318l0.949,0.503c1.634,0.872,3.257,1.764,4.866,2.674l0.445,0.249
				c5.383,3.061,10.722,6.395,15.845,9.893l0.501,0.349c1.507,1.034,2.999,2.085,4.477,3.155l0.821,0.598
				c1.386,1.012,2.761,2.038,4.137,3.091l0.824,0.632c1.403,1.083,2.794,2.183,4.162,3.292l0.571,0.461
				c3.453,2.844,8.559,2.348,11.401-1.107c2.842-3.454,2.347-8.559-1.107-11.401l-0.659-0.534c-1.476-1.195-2.967-2.374-4.471-3.534
				l-0.889-0.684c-1.461-1.117-2.933-2.217-4.445-3.32l-0.847-0.617c-1.567-1.134-3.184-2.273-4.799-3.382l-0.517-0.36
				c-5.511-3.764-11.228-7.335-16.939-10.581l-0.536-0.301c-1.721-0.973-3.475-1.937-5.213-2.864l-1.021-0.541
				c-1.602-0.843-3.214-1.673-4.813-2.471l-1.186-0.591c-1.635-0.805-3.279-1.592-4.946-2.366l-1.008-0.472
				c-1.862-0.854-3.757-1.697-5.685-2.526l-0.285-0.122h0.001c-4.139-1.771-8.392-3.448-12.571-4.962l-0.462-0.164
				c-1.931-0.694-3.875-1.368-5.786-2.002l-1.306-0.424c-1.647-0.536-3.304-1.057-4.96-1.558c-0.541-0.164-1.084-0.324-1.631-0.485
				c-1.597-0.471-3.204-0.924-4.847-1.373l-1.632-0.44c-1.682-0.445-3.372-0.869-5.055-1.276l-0.436-0.108
				c-0.328-0.081-0.656-0.162-0.973-0.237c-2.132-0.501-4.237-0.97-6.231-1.383l-0.251-0.054c-2.278-0.47-4.574-0.91-6.832-1.31
				l-0.242-0.038c-0.042-0.009-0.084-0.016-0.126-0.023c-2.004-0.351-4.078-0.686-6.158-0.996c-0.382-0.058-0.767-0.11-1.149-0.162
				l-0.652-0.09c-0.586-0.083-1.174-0.153-1.761-0.232V64.795c0-12.585-10.238-22.825-22.824-22.825h-19.631
				c-12.585,0-22.824,10.239-22.824,22.825v10.672c-0.59,0.08-1.179,0.15-1.769,0.233l-0.651,0.09
				c-0.382,0.052-0.765,0.105-1.139,0.16c-2.085,0.311-4.159,0.646-6.26,1.013l-0.281,0.046c-2.248,0.397-4.544,0.837-6.819,1.307
				l-0.228,0.05c-2.021,0.42-4.125,0.888-6.244,1.386c-0.33,0.077-0.658,0.158-0.986,0.24l-0.426,0.105
				c-1.694,0.41-3.386,0.834-5.06,1.278l-1.672,0.45c-1.61,0.441-3.217,0.894-4.819,1.366c-0.542,0.16-1.085,0.32-1.62,0.483
				c-1.663,0.503-3.319,1.024-4.993,1.568l-1.288,0.419c-1.903,0.632-3.847,1.305-5.861,2.029l-0.309,0.109
				c-4.249,1.54-8.5,3.217-12.64,4.988h0.001l-0.338,0.146c-1.875,0.806-3.77,1.648-5.647,2.51l-1.005,0.47
				c-1.654,0.77-3.299,1.556-4.956,2.372l-1.141,0.568c-1.622,0.81-3.233,1.639-4.836,2.484l-1.021,0.539
				c-1.738,0.928-3.492,1.892-5.214,2.865l-0.478,0.269c-5.766,3.279-11.484,6.85-17.018,10.63l-0.488,0.338
				c-1.622,1.113-3.239,2.254-4.807,3.389l-0.872,0.634c-1.487,1.085-2.959,2.185-4.405,3.292l-0.902,0.693
				c-1.507,1.161-2.996,2.339-4.482,3.542l-0.621,0.503c-5.15,4.199-10.175,8.647-14.993,13.278c-0.014,0.013-0.09,0.087-0.103,0.1
				c-1.434,1.38-2.92,2.848-4.445,4.392l-0.701,0.718c-1.273,1.3-2.531,2.615-3.761,3.93l-0.881,0.946
				c-1.213,1.308-2.41,2.633-3.607,3.981l-0.784,0.882c-1.276,1.456-2.536,2.922-3.796,4.43l-0.406,0.478
				c-8.657,10.4-16.496,21.594-23.303,33.273c-0.06,0.096-0.119,0.192-0.176,0.289l-0.153,0.269c-0.283,0.488-0.563,0.978-0.84,1.47
				l-0.232,0.409c-0.506,0.894-1.007,1.789-1.505,2.691l-0.206,0.376c-0.258,0.469-0.517,0.935-0.779,1.418
				c-0.715,1.326-1.418,2.659-2.101,3.985c-0.26,0.503-0.517,1.012-0.773,1.518l-0.158,0.31c-0.495,0.976-0.982,1.959-1.465,2.947
				l-0.828,1.699c-0.664,1.387-1.316,2.783-1.956,4.187c-0.23,0.506-0.457,1.013-0.684,1.522l-0.112,0.251
				c-0.475,1.066-0.944,2.137-1.404,3.211l-0.224,0.517c-0.151,0.348-0.3,0.694-0.448,1.048c-0.612,1.456-1.21,2.92-1.794,4.391
				c-0.226,0.566-0.446,1.135-0.667,1.702c-0.452,1.165-0.897,2.336-1.329,3.501l-0.173,0.461c-0.119,0.319-0.24,0.637-0.352,0.949
				c-0.557,1.525-1.094,3.057-1.616,4.587c-0.176,0.513-0.346,1.024-0.55,1.635c-0.423,1.265-0.836,2.538-1.242,3.824l-0.141,0.444
				c-0.084,0.265-0.17,0.529-0.246,0.776c-0.49,1.586-0.963,3.182-1.42,4.777c-0.138,0.478-0.272,0.959-0.407,1.441l-0.036,0.129
				c-0.382,1.369-0.755,2.742-1.113,4.118l-0.276,1.043c-0.422,1.648-0.824,3.308-1.213,4.972c-0.116,0.498-0.23,0.998-0.34,1.486
				c-0.336,1.474-0.658,2.953-0.968,4.44l-0.176,0.833c-0.348,1.705-0.672,3.418-0.985,5.142l-0.255,1.442
				c-0.276,1.573-0.539,3.15-0.786,4.737l-0.102,0.634c-0.267,1.757-0.511,3.521-0.739,5.281l-0.179,1.411
				c-0.206,1.673-0.401,3.347-0.578,5.063l-0.043,0.393c-0.182,1.801-0.338,3.611-0.481,5.422l-0.104,1.373
				c-0.131,1.771-0.247,3.549-0.338,5.322l-0.011,0.205h-0.001c-0.094,1.839-0.159,3.686-0.211,5.531l-0.035,1.382
				c-0.042,1.86-0.07,3.719-0.07,5.59v69.212L0.144,449.751C0.049,450.251,0,450.76,0,451.268c0,0.679,0.041,1.351,0.136,2.172
				c0.025,0.203,0.054,0.402,0.075,0.533c0.089,0.589,0.206,1.163,0.35,1.715c0.037,0.154,0.083,0.335,0.122,0.465
				c0.203,0.688,0.451,1.357,0.753,2.025c0.078,0.176,0.164,0.354,0.242,0.506c0.257,0.523,0.545,1.034,0.856,1.519
				c0.089,0.143,0.18,0.285,0.308,0.472c0.406,0.586,0.856,1.15,1.322,1.661c0.116,0.126,0.238,0.253,0.37,0.387
				c0.388,0.401,0.808,0.792,1.226,1.144c0.135,0.117,0.27,0.231,0.392,0.328c0.548,0.436,1.091,0.825,1.728,1.23
				c0.092,0.057,0.187,0.113,0.286,0.171c0.464,0.281,0.956,0.552,1.477,0.814l0.431,0.213c1.143,0.544,2.397,1.026,3.757,1.44
				l0.314,0.094c0.025,0.008,0.141,0.041,0.167,0.049c0.55,0.157,1.116,0.307,1.657,0.433c0.116,0.028,0.232,0.056,0.351,0.081
				c0.625,0.14,1.278,0.27,1.984,0.394l0.469,0.077c0.559,0.092,1.133,0.177,1.734,0.256l0.423,0.055
				c0.698,0.085,1.418,0.161,2.109,0.22l0.526,0.042c0.606,0.048,1.224,0.091,1.801,0.121l0.612,0.035
				c0.743,0.034,1.502,0.065,2.334,0.083l0.343,0.003c0.672,0.014,1.357,0.022,2.057,0.022l0.691-0.002
				c0.799-0.004,1.609-0.014,2.443-0.034l0.053-0.002c0.056,0,0.111-0.001,0.165-0.002c0.782-0.022,1.582-0.05,2.418-0.083
				l0.789-0.033c0.698-0.031,1.407-0.069,2.22-0.115l0.518-0.028c0.86-0.053,1.738-0.111,2.628-0.174
				c0.009-0.001,0.113-0.009,0.122-0.01l0.84-0.065c0.592-0.043,1.191-0.092,1.797-0.142l1.174-0.097
				c0.882-0.078,1.779-0.16,2.691-0.247l4.337-0.44c0.847-0.091,1.704-0.184,2.552-0.281l6.26-0.746
				c1.218-0.151,2.453-0.307,3.715-0.47l3.524-0.465c9.223-1.233,19.326-2.724,30.02-4.3c6.93-1.022,14.157-2.089,21.645-3.158
				c4.429-0.633,7.505-4.737,6.872-9.164c-0.634-4.429-4.732-7.505-9.164-6.872c-7.512,1.073-14.763,2.143-21.716,3.169
				c-10.64,1.569-20.689,3.051-29.801,4.269l-3.474,0.459c-1.224,0.158-2.43,0.31-3.651,0.462l-6.057,0.721
				c-0.826,0.095-1.643,0.184-2.453,0.27l-4.141,0.42c-0.872,0.083-1.73,0.161-2.569,0.235l-1.08,0.09
				c-0.563,0.045-1.119,0.091-1.72,0.135l-0.874,0.066c-0.833,0.059-1.656,0.116-2.416,0.161l-0.564,0.031
				c-0.66,0.036-1.311,0.07-1.981,0.1l-0.737,0.031c-0.727,0.029-1.444,0.056-2.143,0.073l-0.043,0.001
				c-0.051,0-0.103,0.001-0.154,0.002c-0.73,0.018-1.438,0.025-2.173,0.029l-0.566,0.002c-0.586,0-1.162-0.005-1.752-0.018
				l-0.321-0.003c-0.654-0.015-1.291-0.04-1.891-0.068l-0.478-0.027c-0.49-0.026-0.969-0.059-1.344-0.089l-0.458-0.037
				c-0.541-0.046-1.066-0.102-1.597-0.166l-0.158-0.022c-0.017-0.002-0.1-0.014-0.117-0.016c-0.409-0.054-0.808-0.112-1.16-0.17
				l-0.353-0.058c-0.43-0.076-0.849-0.158-1.25-0.248c-0.004-0.001-0.01-0.002-0.014-0.003c-0.044-0.011-0.093-0.023-0.117-0.027
				c-0.333-0.078-0.652-0.163-0.976-0.257l-0.204-0.06c-0.565-0.172-1.064-0.361-1.405-0.522l-0.213-0.107
				c-0.132-0.066-0.257-0.134-0.389-0.214l-0.081-0.048c-0.038-0.027-0.077-0.056-0.117-0.086c-0.01-0.008-0.019-0.016-0.028-0.024
				l12.011-62.949c0.002-0.012,0.004-0.023,0.006-0.035l0.017-0.093c0.022-0.112,0.031-0.226,0.049-0.339
				c0.019-0.131,0.043-0.259,0.055-0.391c0.026-0.261,0.04-0.525,0.04-0.788c0-5.825,13.207-18.68,62.709-29.912
				c3.743-0.849,7.6-1.663,11.547-2.447c36.796-7.293,82.34-11.727,130.85-12.774c0.239-0.005,0.477-0.009,0.716-0.014
				c1.59-0.034,3.182-0.064,4.778-0.09c0.58-0.01,1.162-0.016,1.743-0.024c1.278-0.018,2.555-0.038,3.836-0.052
				c0.994-0.011,1.99-0.017,2.986-0.025c0.882-0.008,1.764-0.016,2.648-0.022c1.039-0.005,2.082-0.006,3.123-0.009
				c0.867-0.002,1.732-0.008,2.601-0.008c1.895,0,3.786,0.005,5.674,0.016c1.38,0.008,2.757,0.021,4.134,0.034
				c0.486,0.004,0.974,0.006,1.459,0.012c1.779,0.019,3.554,0.043,5.325,0.071c0.07,0.001,0.14,0.002,0.211,0.003
				c53.79,0.868,104.253,5.887,143.578,14.348c0.009,0.002,0.018,0.002,0.027,0.004c1.484,0.32,2.955,0.644,4.406,0.973
				c49.503,11.233,62.709,24.088,62.709,29.912c0,0.263,0.014,0.526,0.04,0.787c0.013,0.133,0.037,0.263,0.056,0.394
				c0.016,0.112,0.027,0.225,0.048,0.336l0.017,0.093c0.002,0.012,0.004,0.023,0.006,0.035l12.011,62.949l-0.032,0.028
				c-0.035,0.026-0.067,0.051-0.089,0.066c-0.045,0.026-0.087,0.053-0.118,0.07c-0.119,0.072-0.245,0.141-0.359,0.199l-0.156,0.078
				c-0.416,0.199-0.915,0.386-1.456,0.552l-0.248,0.073c-0.307,0.087-0.625,0.173-0.955,0.249c-0.024,0.005-0.076,0.018-0.123,0.029
				c-0.003,0.001-0.011,0.002-0.011,0.002c-0.402,0.091-0.821,0.173-1.212,0.243l-0.353,0.058c-0.389,0.064-0.787,0.122-1.195,0.176
				c-0.018,0.002-0.102,0.014-0.119,0.016l-0.178,0.024c-0.511,0.063-1.035,0.117-1.576,0.163c-0.019,0.001-0.111,0.009-0.129,0.011
				l-0.238,0.019c-0.469,0.037-0.947,0.07-1.543,0.102l-0.35,0.021c-0.623,0.029-1.259,0.055-1.864,0.069l-0.397,0.005
				c-0.563,0.012-1.139,0.017-1.726,0.017l-0.6-0.002c-0.699-0.004-1.409-0.012-2.138-0.029c-0.065,0-0.13-0.002-0.211-0.004
				c-0.697-0.018-1.408-0.043-2.167-0.075l-0.729-0.031c-0.64-0.027-1.289-0.063-1.856-0.093l-0.613-0.035
				c-0.805-0.049-1.629-0.105-2.534-0.169l-0.852-0.065c-0.55-0.041-1.106-0.086-1.669-0.132l-1.072-0.09
				c-0.847-0.073-1.705-0.152-2.574-0.234l-4.147-0.421c-0.807-0.086-1.624-0.175-2.468-0.272l-6.07-0.722
				c-1.191-0.149-2.397-0.3-3.608-0.458l-3.484-0.459c-9.13-1.221-19.199-2.706-29.859-4.279
				c-13.424-1.98-28.638-4.224-44.534-6.304l-29.92-3.571l-0.784-0.086c-2.683-0.283-5.391-0.557-8.117-0.823l-2.365-0.231
				c-2.69-0.257-5.399-0.502-8.133-0.742l-2.373-0.202c-2.798-0.237-5.608-0.462-8.438-0.674l-1.885-0.135
				c-2.774-0.2-5.558-0.39-8.349-0.564l-1.119-0.072c-3.026-0.184-6.069-0.344-9.149-0.496l-1.852-0.093
				c-2.992-0.138-6-0.257-9.023-0.361l-1.944-0.064c-3.078-0.096-6.163-0.175-9.257-0.229l-1.473-0.022
				c-3.677-0.058-6.907-0.085-9.959-0.085c-2.966,0-6.195,0.027-9.861,0.085l-1.484,0.022c-3.095,0.054-6.182,0.133-9.27,0.229
				l-1.942,0.064c-3.014,0.104-6.021,0.222-9.024,0.362l-1.867,0.093c-3.053,0.15-6.097,0.311-9.145,0.496l-1.089,0.071
				c-2.799,0.174-5.583,0.364-8.351,0.564l-1.892,0.135c-2.828,0.212-5.639,0.437-8.426,0.673l-2.398,0.203
				c-2.723,0.239-5.43,0.483-8.127,0.741l-2.366,0.231c-2.718,0.266-5.426,0.54-8.144,0.827l-27.233,3.243
				c-4.442,0.53-7.614,4.562-7.083,9.002c0.53,4.443,4.567,7.61,9.003,7.082l26.339-3.144l0.707-0.078
				c2.643-0.279,5.309-0.549,7.98-0.81l2.347-0.229c2.648-0.253,5.312-0.494,7.978-0.727l2.35-0.2
				c2.75-0.232,5.512-0.454,8.289-0.663l1.838-0.131c2.723-0.197,5.454-0.382,8.209-0.554l1.072-0.07
				c2.964-0.179,5.945-0.338,8.997-0.487l1.774-0.089c2.928-0.136,5.867-0.253,8.806-0.352l1.918-0.064
				c3.001-0.094,6.011-0.171,9.032-0.222l1.446-0.022c3.592-0.056,6.738-0.083,9.706-0.083c2.881,0,6.027,0.027,9.65,0.083
				l1.417,0.022c3.02,0.052,6.029,0.128,9.02,0.222l1.92,0.064c2.948,0.099,5.888,0.216,8.805,0.351l1.847,0.093
				c2.99,0.146,5.97,0.305,8.913,0.483l1.103,0.071c2.746,0.172,5.477,0.357,8.207,0.554l1.831,0.131
				c2.778,0.21,5.54,0.431,8.302,0.664l2.325,0.198c2.677,0.234,5.341,0.474,7.984,0.728l2.346,0.229
				c2.677,0.261,5.344,0.531,7.952,0.806l30.427,3.625c15.674,2.051,30.819,4.285,44.181,6.255
				c10.716,1.581,20.838,3.075,30.08,4.31l3.533,0.465c1.251,0.162,2.485,0.319,3.672,0.467l6.273,0.746
				c0.866,0.099,1.724,0.192,2.567,0.283l4.342,0.441c0.909,0.085,1.806,0.167,2.696,0.246l1.166,0.097
				c0.607,0.05,1.205,0.098,1.745,0.138l0.892,0.068c0.009,0.001,0.113,0.009,0.122,0.01c0.889,0.064,1.768,0.121,2.672,0.176
				l0.568,0.031c0.719,0.04,1.428,0.077,2.096,0.107l0.843,0.037c0.812,0.032,1.611,0.063,2.394,0.082
				c0.067-0.001,0.133,0.001,0.218,0.004c0.833,0.021,1.644,0.029,2.408,0.034l0.725,0.002c0.7,0,1.386-0.008,2.03-0.021
				l0.422-0.005c0.782-0.018,1.54-0.049,2.306-0.083l0.537-0.031c0.632-0.032,1.25-0.076,1.855-0.123
				c0.03-0.002,0.144-0.011,0.175-0.014l0.3-0.024c0.742-0.064,1.462-0.139,2.139-0.221l0.455-0.06
				c0.591-0.077,1.163-0.161,1.76-0.26l0.473-0.078c0.665-0.117,1.313-0.246,1.935-0.386c0.122-0.026,0.232-0.052,0.308-0.071
				c0.592-0.138,1.161-0.289,1.713-0.446c0.024-0.008,0.139-0.041,0.162-0.048l0.341-0.103c1.335-0.406,2.59-0.888,3.805-1.468
				l0.374-0.185c0.513-0.258,1.01-0.532,1.468-0.811c0.11-0.065,0.254-0.151,0.342-0.206c0.572-0.364,1.136-0.767,1.644-1.175
				c0.14-0.11,0.275-0.225,0.383-0.32c0.467-0.392,0.908-0.806,1.242-1.156c0.13-0.13,0.257-0.262,0.364-0.38
				c0.481-0.527,0.931-1.092,1.369-1.724c0.096-0.14,0.186-0.28,0.279-0.43c0.313-0.49,0.6-0.999,0.845-1.495
				c0.086-0.173,0.173-0.351,0.242-0.505c0.311-0.69,0.561-1.36,0.792-2.147c0.035-0.124,0.067-0.251,0.096-0.379
				c0.14-0.539,0.254-1.093,0.351-1.723c0.025-0.166,0.05-0.338,0.077-0.568c0.089-0.765,0.13-1.436,0.13-2.116
				C512,450.76,511.951,450.251,511.856,449.751z M246.184,58.162h19.631c3.652,0,6.624,2.972,6.624,6.625v9.029
				c-0.719-0.049-1.44-0.084-2.16-0.126c-0.204-0.013-0.408-0.027-0.612-0.038c-0.049-0.003-0.098-0.003-0.148-0.006
				c-2.115-0.117-4.229-0.206-6.341-0.269c-0.116-0.004-0.225-0.01-0.342-0.013c-0.72-0.019-1.415-0.036-2.094-0.049
				c-0.384-0.008-0.768-0.015-1.151-0.021c-1.248-0.019-2.444-0.03-3.599-0.03c0,0-0.001,0-0.002,0c-1.134,0-2.314,0.011-3.553,0.03
				c-0.421,0.006-0.842,0.014-1.264,0.023c-0.658,0.013-1.329,0.029-2.027,0.048c-0.096,0.003-0.191,0.008-0.287,0.011
				c-2.171,0.064-4.342,0.157-6.514,0.276c-0.003,0-0.008,0-0.011,0c-0.015,0.001-0.03,0.002-0.045,0.003
				c-0.909,0.051-1.818,0.098-2.726,0.16v-9.028h-0.002C239.56,61.134,242.532,58.162,246.184,58.162z M85.807,316.982v24.681
				c-2.707,0.627-5.348,1.266-7.907,1.917c-0.073,0.018-0.145,0.038-0.218,0.056c-1.437,0.367-2.852,0.738-4.243,1.112
				c-0.23,0.062-0.455,0.125-0.684,0.187c-1.227,0.334-2.439,0.67-3.629,1.009c-0.3,0.085-0.596,0.172-0.894,0.258
				c-1.109,0.321-2.204,0.643-3.281,0.969c-0.323,0.097-0.644,0.195-0.963,0.294c-1.04,0.319-2.064,0.64-3.071,0.964
				c-0.323,0.104-0.646,0.207-0.965,0.312c-0.995,0.324-1.971,0.651-2.934,0.98c-0.306,0.105-0.613,0.208-0.916,0.313
				c-0.978,0.339-1.936,0.681-2.882,1.026c-0.261,0.095-0.527,0.189-0.785,0.284c-1.009,0.372-1.994,0.747-2.964,1.125
				c-0.176,0.069-0.359,0.136-0.535,0.205c-3.474,1.367-6.706,2.771-9.69,4.215c-0.082,0.04-0.159,0.08-0.241,0.12
				c-0.882,0.43-1.745,0.862-2.584,1.298c-0.227,0.118-0.444,0.238-0.667,0.356c-0.679,0.36-1.35,0.721-2.001,1.085
				c-0.276,0.154-0.542,0.311-0.813,0.467c-0.577,0.332-1.147,0.663-1.699,0.998c-0.292,0.176-0.575,0.354-0.86,0.532
				c-0.511,0.319-1.013,0.638-1.502,0.96c-0.133,0.087-0.278,0.174-0.409,0.261v-45.983h0.001c0-1.745,0.026-3.484,0.067-5.232
				l0.032-1.286c0.048-1.724,0.109-3.445,0.197-5.158c0.001-0.017,0.002-0.032,0.002-0.05c0.003-0.043,0.008-0.118,0.009-0.143
				c0.085-1.664,0.195-3.324,0.315-4.974l0.097-1.286c0.134-1.692,0.28-3.385,0.444-5.015l0.049-0.448
				c0.162-1.569,0.343-3.135,0.536-4.68l0.167-1.331c0.214-1.65,0.441-3.296,0.688-4.915l0.097-0.609
				c0.229-1.476,0.474-2.949,0.734-4.428l0.238-1.34c0.292-1.602,0.594-3.201,0.922-4.811l0.162-0.768
				c0.287-1.383,0.589-2.761,0.903-4.146l0.318-1.382c0.362-1.551,0.737-3.097,1.131-4.635l0.258-0.975
				c0.335-1.283,0.681-2.564,1.04-3.845l0.038-0.135c0.122-0.44,0.245-0.878,0.373-1.32c0.428-1.494,0.869-2.982,1.333-4.481
				l0.359-1.13c0.377-1.192,0.762-2.378,1.19-3.661c0.158-0.47,0.313-0.94,0.477-1.418c0.488-1.434,0.989-2.859,1.509-4.287
				l0.489-1.311c0.406-1.095,0.822-2.186,1.244-3.274c0.204-0.528,0.41-1.057,0.62-1.583c0.545-1.373,1.103-2.739,1.673-4.095
				l0.627-1.461c0.43-1.003,0.867-2.003,1.31-2.995l0.112-0.251c0.208-0.47,0.419-0.94,0.632-1.406
				c0.596-1.31,1.204-2.613,1.82-3.896l0.776-1.594c0.448-0.917,0.902-1.828,1.366-2.745l0.164-0.325
				c0.231-0.457,0.461-0.914,0.702-1.38c0.645-1.249,1.3-2.495,1.959-3.716c0.234-0.432,0.473-0.864,0.711-1.294l0.208-0.38
				c0.468-0.844,0.936-1.688,1.409-2.521l0.237-0.416c0.251-0.442,0.501-0.883,0.754-1.321l0.062-0.106
				c0.048-0.077,0.095-0.154,0.14-0.234c6.383-10.978,13.743-21.497,21.88-31.273l0.391-0.462c1.162-1.387,2.337-2.759,3.526-4.112
				l0.743-0.838c1.106-1.247,2.227-2.485,3.359-3.707l0.814-0.874c1.161-1.24,2.335-2.466,3.501-3.658l0.699-0.717
				c1.403-1.419,2.792-2.792,4.054-4.009l0.221-0.214c4.446-4.272,9.141-8.428,13.978-12.373l0.563-0.454
				c1.377-1.116,2.768-2.216,4.173-3.3l0.836-0.642c1.362-1.043,2.737-2.069,4.097-3.063l0.844-0.615
				c1.48-1.07,2.973-2.122,4.485-3.161l0.472-0.328c5.147-3.514,10.485-6.849,15.924-9.942l0.388-0.217
				c1.61-0.91,3.233-1.802,4.867-2.675l0.949-0.501c1.495-0.788,2.998-1.563,4.535-2.329l1.058-0.527
				c1.529-0.752,3.068-1.488,4.603-2.202l0.959-0.448c1.743-0.8,3.517-1.59,5.282-2.348l0.198-0.086
				c0.034-0.015,0.068-0.028,0.102-0.043c1.169-0.5,2.365-0.975,3.552-1.459c-12.852,10.743-24.792,23.982-35.515,39.57
				C103.173,191.62,85.807,252.42,85.807,316.982z M409.992,338.236c-36.281-7.007-80.33-11.325-127.406-12.509
				c-0.145-0.003-0.291-0.008-0.435-0.011c-1.511-0.038-3.024-0.072-4.541-0.103c-0.417-0.009-0.835-0.016-1.252-0.025
				c-1.316-0.025-2.634-0.049-3.955-0.069c-0.661-0.011-1.324-0.018-1.986-0.028c-1.122-0.015-2.243-0.03-3.367-0.042
				c-0.961-0.01-1.924-0.016-2.888-0.024c-0.482-0.003-0.962-0.009-1.444-0.012c-0.259-0.001-0.516-0.005-0.775-0.006
				c-0.124-0.001-0.248,0-0.373-0.001c-1.815-0.01-3.633-0.015-5.454-0.015c-0.039,0-0.077,0-0.116,0c-0.002,0-0.003,0-0.005,0
				c-0.002,0-0.004,0-0.006,0c-1.877,0-3.752,0.005-5.623,0.015c-0.726,0.004-1.449,0.011-2.175,0.016
				c-1.121,0.009-2.241,0.016-3.359,0.028c-0.959,0.01-1.915,0.024-2.871,0.036c-0.85,0.011-1.701,0.022-2.55,0.036
				c-1.142,0.017-2.28,0.039-3.418,0.06c-0.621,0.012-1.243,0.024-1.864,0.037c-1.312,0.027-2.622,0.057-3.929,0.089
				c-0.392,0.01-0.783,0.019-1.174,0.029c-1.516,0.039-3.029,0.08-4.538,0.125c-0.077,0.002-0.152,0.004-0.228,0.006
				c-45.117,1.361-87.273,5.614-122.225,12.362c-0.009,0.002-0.018,0.003-0.027,0.005v-21.251
				c0-124.989,68.569-226.75,153.053-227.501c0.646-0.002,1.293-0.001,1.939,0.001c84.452,0.806,152.992,102.546,152.992,227.5
				V338.236z"/>
			<path d="M256,184.289c-27.334,0-49.57,22.237-49.57,49.57s22.237,49.57,49.57,49.57s49.57-22.237,49.57-49.57
				S283.332,184.289,256,184.289z M256,267.23c-18.4,0-33.37-14.97-33.37-33.37c0-18.4,14.97-33.37,33.37-33.37
				s33.37,14.97,33.37,33.37C289.37,252.26,274.4,267.23,256,267.23z"/>
		</g>
	</g>
</g>
<g>
</g>
<g>
</g>
<g>
</g>
<g>
</g>
<g>
</g>
<g>
</g>
<g>
</g>
<g>
</g>
<g>
</g>
<g>
</g>
<g>
</g>
<g>
</g>
<g>
</g>
<g>
</g>
<g>
</g>
</svg>
